<mxfile host="app.diagrams.net" agent="Mozilla/5.0 (Macintosh; Intel Mac OS X 10_15_7) AppleWebKit/537.36 (KHTML, like Gecko) Chrome/132.0.0.0 Safari/537.36" version="26.0.6" pages="2">
  <diagram name="Page-1" id="10a91c8b-09ff-31b1-d368-03940ed4cc9e">
    <mxGraphModel dx="3183" dy="1281" grid="1" gridSize="10" guides="1" tooltips="1" connect="1" arrows="1" fold="1" page="1" pageScale="1" pageWidth="1100" pageHeight="850" background="none" math="0" shadow="0">
      <root>
        <mxCell id="0" />
        <mxCell id="1" parent="0" />
        <mxCell id="3dLhYdu3cuJutTxXhPSu-93" value="" style="group;fillColor=#00C3FF;" parent="1" vertex="1" connectable="0">
          <mxGeometry x="897.5" y="720" width="680" height="465" as="geometry" />
        </mxCell>
        <mxCell id="3dLhYdu3cuJutTxXhPSu-45" value="&lt;b&gt;IP_CLIENTID_ADMIN_PROD&lt;/b&gt;" style="whiteSpace=wrap;html=1;align=center;verticalAlign=middle;treeFolding=1;treeMoving=1;newEdgeStyle={&quot;edgeStyle&quot;:&quot;elbowEdgeStyle&quot;,&quot;startArrow&quot;:&quot;none&quot;,&quot;endArrow&quot;:&quot;none&quot;};imageWidth=24;" parent="3dLhYdu3cuJutTxXhPSu-93" vertex="1">
          <mxGeometry y="148.65159574468086" width="204.3115751521069" height="29.680851063829788" as="geometry" />
        </mxCell>
        <mxCell id="3dLhYdu3cuJutTxXhPSu-46" value="&lt;b style=&quot;&quot;&gt;IP_CLIENTID_WORKER_PROD&lt;/b&gt;" style="whiteSpace=wrap;html=1;align=center;verticalAlign=middle;treeFolding=1;treeMoving=1;newEdgeStyle={&quot;edgeStyle&quot;:&quot;elbowEdgeStyle&quot;,&quot;startArrow&quot;:&quot;none&quot;,&quot;endArrow&quot;:&quot;none&quot;};imageWidth=24;" parent="3dLhYdu3cuJutTxXhPSu-93" vertex="1">
          <mxGeometry x="224.9061819274395" y="148.65159574468086" width="224.7427326673176" height="29.680851063829788" as="geometry" />
        </mxCell>
        <mxCell id="3dLhYdu3cuJutTxXhPSu-48" value="&lt;b style=&quot;&quot;&gt;IP_CLIENTID_VIEWER_PROD&lt;/b&gt;" style="whiteSpace=wrap;html=1;align=center;verticalAlign=middle;treeFolding=1;treeMoving=1;newEdgeStyle={&quot;edgeStyle&quot;:&quot;elbowEdgeStyle&quot;,&quot;startArrow&quot;:&quot;none&quot;,&quot;endArrow&quot;:&quot;none&quot;};imageWidth=24;" parent="3dLhYdu3cuJutTxXhPSu-93" vertex="1">
          <mxGeometry x="465.4728460902878" y="148.65159574468086" width="214.52715390971227" height="29.680851063829788" as="geometry" />
        </mxCell>
        <mxCell id="3dLhYdu3cuJutTxXhPSu-50" value="&lt;div style=&quot;&quot;&gt;&lt;span style=&quot;background-color: transparent; color: light-dark(rgb(0, 0, 0), rgb(255, 255, 255));&quot;&gt;Allow&lt;/span&gt;&lt;/div&gt;&lt;div&gt;-&amp;nbsp;&lt;b&gt;PRODUCTION&lt;/b&gt; &lt;i&gt;Write&lt;/i&gt;&lt;br&gt;&lt;/div&gt;&lt;div&gt;for specific &lt;b&gt;case_ref_id&lt;/b&gt;&lt;/div&gt;" style="whiteSpace=wrap;html=1;rounded=0;shadow=1;labelBackgroundColor=none;strokeWidth=2;fontFamily=Verdana;fontSize=12;align=left;" parent="3dLhYdu3cuJutTxXhPSu-93" vertex="1">
          <mxGeometry x="97.2038901825283" y="350.0010638297872" width="194.09599639450158" height="79.14893617021276" as="geometry" />
        </mxCell>
        <mxCell id="3dLhYdu3cuJutTxXhPSu-54" value="&lt;div style=&quot;&quot;&gt;&lt;span style=&quot;background-color: transparent; color: light-dark(rgb(0, 0, 0), rgb(255, 255, 255));&quot;&gt;Allow&lt;/span&gt;&lt;/div&gt;&lt;div&gt;-&amp;nbsp;&lt;b&gt;PRODUCTION&lt;/b&gt; &lt;i&gt;Read Only&lt;/i&gt;&lt;br&gt;&lt;/div&gt;&lt;div&gt;for specific &lt;b&gt;case_ref_id&lt;/b&gt;&lt;/div&gt;" style="whiteSpace=wrap;html=1;rounded=0;shadow=1;labelBackgroundColor=none;strokeWidth=2;fontFamily=Verdana;fontSize=12;align=left;" parent="3dLhYdu3cuJutTxXhPSu-93" vertex="1">
          <mxGeometry x="383.56699391572124" y="350.0010638297872" width="194.09599639450158" height="79.14893617021276" as="geometry" />
        </mxCell>
        <mxCell id="3dLhYdu3cuJutTxXhPSu-82" value="" style="edgeStyle=elbowEdgeStyle;elbow=vertical;sourcePerimeterSpacing=0;targetPerimeterSpacing=0;startArrow=none;endArrow=none;rounded=0;curved=0;exitX=0.5;exitY=1;exitDx=0;exitDy=0;entryX=0.5;entryY=0;entryDx=0;entryDy=0;" parent="3dLhYdu3cuJutTxXhPSu-93" source="3dLhYdu3cuJutTxXhPSu-45" target="3dLhYdu3cuJutTxXhPSu-50" edge="1">
          <mxGeometry relative="1" as="geometry">
            <mxPoint x="24.813640802223464" y="178.08510638297872" as="sourcePoint" />
            <mxPoint x="259.7719522271464" y="257.2340425531915" as="targetPoint" />
          </mxGeometry>
        </mxCell>
        <mxCell id="3dLhYdu3cuJutTxXhPSu-83" value="" style="edgeStyle=elbowEdgeStyle;elbow=vertical;sourcePerimeterSpacing=0;targetPerimeterSpacing=0;startArrow=none;endArrow=none;rounded=0;curved=0;exitX=0.5;exitY=1;exitDx=0;exitDy=0;entryX=0.5;entryY=0;entryDx=0;entryDy=0;" parent="3dLhYdu3cuJutTxXhPSu-93" source="3dLhYdu3cuJutTxXhPSu-46" target="3dLhYdu3cuJutTxXhPSu-50" edge="1">
          <mxGeometry relative="1" as="geometry">
            <mxPoint x="112.37136633365893" y="188.72074468085108" as="sourcePoint" />
            <mxPoint x="204.31157515210703" y="258.9654255319149" as="targetPoint" />
          </mxGeometry>
        </mxCell>
        <mxCell id="3dLhYdu3cuJutTxXhPSu-86" value="PRODUCTION" style="text;html=1;align=center;verticalAlign=middle;whiteSpace=wrap;rounded=0;fontSize=20;fontStyle=2" parent="3dLhYdu3cuJutTxXhPSu-93" vertex="1">
          <mxGeometry x="265.7717306392248" y="61.25" width="143.01810260647486" height="29.680851063829788" as="geometry" />
        </mxCell>
        <mxCell id="3dLhYdu3cuJutTxXhPSu-88" value="" style="edgeStyle=elbowEdgeStyle;elbow=vertical;sourcePerimeterSpacing=0;targetPerimeterSpacing=0;startArrow=none;endArrow=none;rounded=0;curved=0;exitX=0.5;exitY=1;exitDx=0;exitDy=0;entryX=0.5;entryY=0;entryDx=0;entryDy=0;" parent="3dLhYdu3cuJutTxXhPSu-93" source="3dLhYdu3cuJutTxXhPSu-48" target="3dLhYdu3cuJutTxXhPSu-54" edge="1">
          <mxGeometry relative="1" as="geometry">
            <mxPoint x="347.6463607000676" y="187.97872340425533" as="sourcePoint" />
            <mxPoint x="230.1672049876061" y="397.72340425531917" as="targetPoint" />
          </mxGeometry>
        </mxCell>
        <mxCell id="3dLhYdu3cuJutTxXhPSu-94" value="" style="group;fillColor=light-dark(#f5e747, #ededed);" parent="1" vertex="1" connectable="0">
          <mxGeometry x="1627.19" y="720" width="670.31" height="460" as="geometry" />
        </mxCell>
        <mxCell id="3dLhYdu3cuJutTxXhPSu-55" value="&lt;div style=&quot;&quot;&gt;&lt;span style=&quot;background-color: transparent; color: light-dark(rgb(0, 0, 0), rgb(255, 255, 255));&quot;&gt;Allow&lt;/span&gt;&lt;/div&gt;&lt;div&gt;-&amp;nbsp;&lt;b&gt;TESTING&lt;/b&gt;&amp;nbsp;&lt;i&gt;Write&lt;/i&gt;&lt;br&gt;&lt;/div&gt;&lt;div&gt;for specific &lt;b&gt;case_ref_id&lt;/b&gt;&lt;/div&gt;" style="whiteSpace=wrap;html=1;rounded=0;shadow=1;labelBackgroundColor=none;strokeWidth=2;fontFamily=Verdana;fontSize=12;align=left;" parent="3dLhYdu3cuJutTxXhPSu-94" vertex="1">
          <mxGeometry x="120.30933921730616" y="357.7821276595745" width="191.33012844587992" height="78.29787234042553" as="geometry" />
        </mxCell>
        <mxCell id="3dLhYdu3cuJutTxXhPSu-56" value="&lt;div style=&quot;&quot;&gt;&lt;span style=&quot;background-color: transparent; color: light-dark(rgb(0, 0, 0), rgb(255, 255, 255));&quot;&gt;Allow&lt;/span&gt;&lt;/div&gt;&lt;div&gt;-&amp;nbsp;&lt;b&gt;TESTING&lt;/b&gt;&amp;nbsp;&lt;i&gt;Read Only&lt;/i&gt;&lt;br&gt;&lt;/div&gt;&lt;div&gt;for specific &lt;b&gt;case_ref_id&lt;/b&gt;&lt;/div&gt;" style="whiteSpace=wrap;html=1;rounded=0;shadow=1;labelBackgroundColor=none;strokeWidth=2;fontFamily=Verdana;fontSize=12;align=left;" parent="3dLhYdu3cuJutTxXhPSu-94" vertex="1">
          <mxGeometry x="402.26952850597127" y="357.7821276595745" width="191.33012844587992" height="78.29787234042553" as="geometry" />
        </mxCell>
        <mxCell id="3dLhYdu3cuJutTxXhPSu-65" value="&lt;b&gt;IP_CLIENTID_ADMIN_PROD&lt;/b&gt;" style="whiteSpace=wrap;html=1;align=center;verticalAlign=middle;treeFolding=1;treeMoving=1;newEdgeStyle={&quot;edgeStyle&quot;:&quot;elbowEdgeStyle&quot;,&quot;startArrow&quot;:&quot;none&quot;,&quot;endArrow&quot;:&quot;none&quot;};imageWidth=24;" parent="3dLhYdu3cuJutTxXhPSu-94" vertex="1">
          <mxGeometry y="146.80851063829786" width="201.4001352061894" height="29.361702127659573" as="geometry" />
        </mxCell>
        <mxCell id="3dLhYdu3cuJutTxXhPSu-66" value="&lt;b style=&quot;&quot;&gt;IP_CLIENTID_WORKER_PROD&lt;/b&gt;" style="whiteSpace=wrap;html=1;align=center;verticalAlign=middle;treeFolding=1;treeMoving=1;newEdgeStyle={&quot;edgeStyle&quot;:&quot;elbowEdgeStyle&quot;,&quot;startArrow&quot;:&quot;none&quot;,&quot;endArrow&quot;:&quot;none&quot;};imageWidth=24;" parent="3dLhYdu3cuJutTxXhPSu-94" vertex="1">
          <mxGeometry x="221.70126883497335" y="146.80851063829786" width="221.54014872680833" height="29.361702127659573" as="geometry" />
        </mxCell>
        <mxCell id="3dLhYdu3cuJutTxXhPSu-68" value="&lt;b style=&quot;&quot;&gt;IP_CLIENTID_VIEWER_PROD&lt;/b&gt;" style="whiteSpace=wrap;html=1;align=center;verticalAlign=middle;treeFolding=1;treeMoving=1;newEdgeStyle={&quot;edgeStyle&quot;:&quot;elbowEdgeStyle&quot;,&quot;startArrow&quot;:&quot;none&quot;,&quot;endArrow&quot;:&quot;none&quot;};imageWidth=24;" parent="3dLhYdu3cuJutTxXhPSu-94" vertex="1">
          <mxGeometry x="458.83985803350106" y="146.80851063829786" width="211.47014196649886" height="29.361702127659573" as="geometry" />
        </mxCell>
        <mxCell id="3dLhYdu3cuJutTxXhPSu-87" value="TESTING" style="text;html=1;align=center;verticalAlign=middle;whiteSpace=wrap;rounded=0;fontSize=20;fontStyle=2" parent="3dLhYdu3cuJutTxXhPSu-94" vertex="1">
          <mxGeometry x="261.9778326447831" y="61.25" width="140.98009464433255" height="29.361702127659573" as="geometry" />
        </mxCell>
        <mxCell id="3dLhYdu3cuJutTxXhPSu-89" value="" style="edgeStyle=elbowEdgeStyle;elbow=vertical;sourcePerimeterSpacing=0;targetPerimeterSpacing=0;startArrow=none;endArrow=none;rounded=0;curved=0;exitX=0.5;exitY=1;exitDx=0;exitDy=0;entryX=0.5;entryY=0;entryDx=0;entryDy=0;" parent="3dLhYdu3cuJutTxXhPSu-94" source="3dLhYdu3cuJutTxXhPSu-68" target="3dLhYdu3cuJutTxXhPSu-56" edge="1">
          <mxGeometry relative="1" as="geometry">
            <mxPoint x="-130.59791767445356" y="185.95744680851064" as="sourcePoint" />
            <mxPoint x="-196.0529616164651" y="393.4468085106383" as="targetPoint" />
          </mxGeometry>
        </mxCell>
        <mxCell id="3dLhYdu3cuJutTxXhPSu-90" value="" style="edgeStyle=elbowEdgeStyle;elbow=vertical;sourcePerimeterSpacing=0;targetPerimeterSpacing=0;startArrow=none;endArrow=none;rounded=0;curved=0;exitX=0.5;exitY=1;exitDx=0;exitDy=0;entryX=0.5;entryY=0;entryDx=0;entryDy=0;" parent="3dLhYdu3cuJutTxXhPSu-94" source="3dLhYdu3cuJutTxXhPSu-66" target="3dLhYdu3cuJutTxXhPSu-55" edge="1">
          <mxGeometry relative="1" as="geometry">
            <mxPoint x="-130.59791767445356" y="185.95744680851064" as="sourcePoint" />
            <mxPoint x="-196.0529616164651" y="393.4468085106383" as="targetPoint" />
          </mxGeometry>
        </mxCell>
        <mxCell id="3dLhYdu3cuJutTxXhPSu-91" value="" style="edgeStyle=elbowEdgeStyle;elbow=vertical;sourcePerimeterSpacing=0;targetPerimeterSpacing=0;startArrow=none;endArrow=none;rounded=0;curved=0;exitX=0.5;exitY=1;exitDx=0;exitDy=0;entryX=0.5;entryY=0;entryDx=0;entryDy=0;" parent="3dLhYdu3cuJutTxXhPSu-94" source="3dLhYdu3cuJutTxXhPSu-65" target="3dLhYdu3cuJutTxXhPSu-55" edge="1">
          <mxGeometry relative="1" as="geometry">
            <mxPoint x="-120.52791091414409" y="195.74468085106383" as="sourcePoint" />
            <mxPoint x="-185.98295485615563" y="403.2340425531915" as="targetPoint" />
          </mxGeometry>
        </mxCell>
        <mxCell id="62893188c0fa7362-1" value="is Support type?&lt;div&gt;(SUPPORT/AUDIT)&lt;/div&gt;" style="whiteSpace=wrap;html=1;rounded=1;shadow=1;labelBackgroundColor=none;strokeWidth=1;fontFamily=Verdana;fontSize=12;align=center;" parent="1" vertex="1">
          <mxGeometry x="869.64375" y="270" width="120" height="60" as="geometry" />
        </mxCell>
        <mxCell id="62893188c0fa7362-3" value="has related support role and ENV?&lt;br&gt;&lt;div&gt;&lt;b&gt;- PROD_ENV_APPROVER&lt;/b&gt;&lt;/div&gt;&lt;div&gt;&lt;b&gt;- PROD_ENV_MGR&lt;/b&gt;&lt;/div&gt;&lt;div&gt;&lt;b&gt;- PROD_ENV_SUPPORT&lt;/b&gt;&lt;/div&gt;&lt;div&gt;&lt;div&gt;&lt;b&gt;- ITE_ENV_APPROVER&lt;/b&gt;&lt;/div&gt;&lt;div&gt;&lt;b&gt;- TEST_ENV_MGR&lt;/b&gt;&lt;/div&gt;&lt;div&gt;&lt;b&gt;- TEST_ENV_SUPPORT&lt;/b&gt;&lt;/div&gt;&lt;/div&gt;(iamsmart.portal_role_member)" style="whiteSpace=wrap;html=1;rounded=1;shadow=1;labelBackgroundColor=none;strokeWidth=1;fontFamily=Verdana;fontSize=12;align=left;" parent="1" vertex="1">
          <mxGeometry x="520" y="380" width="255" height="180" as="geometry" />
        </mxCell>
        <mxCell id="62893188c0fa7362-4" value="Yes" style="rounded=0;html=1;labelBackgroundColor=none;startArrow=none;startFill=0;startSize=5;endArrow=none;endFill=0;endSize=5;jettySize=auto;orthogonalLoop=1;strokeWidth=1;fontFamily=Verdana;fontSize=12" parent="1" source="62893188c0fa7362-1" target="62893188c0fa7362-3" edge="1">
          <mxGeometry x="0.185" y="-44" relative="1" as="geometry">
            <mxPoint as="offset" />
          </mxGeometry>
        </mxCell>
        <mxCell id="62893188c0fa7362-5" value="No" style="rounded=0;html=1;labelBackgroundColor=none;startArrow=none;startFill=0;startSize=5;endArrow=none;endFill=0;endSize=5;jettySize=auto;orthogonalLoop=1;strokeWidth=1;fontFamily=Verdana;fontSize=12;exitX=1;exitY=0.5;exitDx=0;exitDy=0;entryX=0.5;entryY=0;entryDx=0;entryDy=0;" parent="1" source="62893188c0fa7362-1" target="ggczQ8R7zVc78r3qwQfg-11" edge="1">
          <mxGeometry x="0.1101" y="28" relative="1" as="geometry">
            <mxPoint as="offset" />
            <mxPoint x="1067.5" y="376.9565217391305" as="sourcePoint" />
            <mxPoint x="709.0000000000005" y="400" as="targetPoint" />
          </mxGeometry>
        </mxCell>
        <mxCell id="62893188c0fa7362-11" value="&lt;span&gt;Nothing&lt;/span&gt;" style="whiteSpace=wrap;html=1;rounded=0;shadow=1;labelBackgroundColor=none;strokeWidth=2;fontFamily=Verdana;fontSize=12;align=center;" parent="1" vertex="1">
          <mxGeometry x="370" y="610" width="120" height="60" as="geometry" />
        </mxCell>
        <mxCell id="62893188c0fa7362-16" value="Yes" style="rounded=0;html=1;labelBackgroundColor=none;startArrow=none;startFill=0;startSize=5;endArrow=none;endFill=0;endSize=5;jettySize=auto;orthogonalLoop=1;strokeWidth=1;fontFamily=Verdana;fontSize=12;entryX=0.5;entryY=0;entryDx=0;entryDy=0;" parent="1" source="62893188c0fa7362-3" target="ggczQ8R7zVc78r3qwQfg-3" edge="1">
          <mxGeometry x="-0.2614" y="-13" relative="1" as="geometry">
            <mxPoint as="offset" />
            <mxPoint x="177.5" y="585" as="targetPoint" />
          </mxGeometry>
        </mxCell>
        <mxCell id="62893188c0fa7362-17" value="No" style="rounded=0;html=1;labelBackgroundColor=none;startArrow=none;startFill=0;startSize=5;endArrow=none;endFill=0;endSize=5;jettySize=auto;orthogonalLoop=1;strokeWidth=1;fontFamily=Verdana;fontSize=12" parent="1" source="62893188c0fa7362-3" target="62893188c0fa7362-11" edge="1">
          <mxGeometry x="-0.1294" y="17" relative="1" as="geometry">
            <mxPoint as="offset" />
          </mxGeometry>
        </mxCell>
        <mxCell id="ggczQ8R7zVc78r3qwQfg-2" value="" style="endArrow=none;dashed=1;html=1;dashPattern=1 3;strokeWidth=2;rounded=0;" parent="1" edge="1">
          <mxGeometry width="50" height="50" relative="1" as="geometry">
            <mxPoint x="870" y="1460" as="sourcePoint" />
            <mxPoint x="872" y="340" as="targetPoint" />
          </mxGeometry>
        </mxCell>
        <mxCell id="ggczQ8R7zVc78r3qwQfg-3" value="has user group (BD/NBD support)?&lt;br&gt;&lt;span&gt;(iamsmart.portal_user_group)&lt;/span&gt;" style="whiteSpace=wrap;html=1;rounded=1;shadow=1;labelBackgroundColor=none;strokeWidth=1;fontFamily=Verdana;fontSize=12;align=center;" parent="1" vertex="1">
          <mxGeometry x="639.5" y="650" width="210" height="120" as="geometry" />
        </mxCell>
        <mxCell id="ggczQ8R7zVc78r3qwQfg-7" value="Yes" style="rounded=0;html=1;labelBackgroundColor=none;startArrow=none;startFill=0;startSize=5;endArrow=none;endFill=0;endSize=5;jettySize=auto;orthogonalLoop=1;strokeWidth=1;fontFamily=Verdana;fontSize=12;exitX=0;exitY=0.75;exitDx=0;exitDy=0;entryX=0.5;entryY=0;entryDx=0;entryDy=0;" parent="1" source="ggczQ8R7zVc78r3qwQfg-3" target="3dLhYdu3cuJutTxXhPSu-158" edge="1">
          <mxGeometry x="-0.2614" y="-13" relative="1" as="geometry">
            <mxPoint as="offset" />
            <mxPoint x="137" y="785" as="sourcePoint" />
            <mxPoint x="312" y="845" as="targetPoint" />
          </mxGeometry>
        </mxCell>
        <mxCell id="ggczQ8R7zVc78r3qwQfg-9" value="No" style="rounded=0;html=1;labelBackgroundColor=none;startArrow=none;startFill=0;startSize=5;endArrow=none;endFill=0;endSize=5;jettySize=auto;orthogonalLoop=1;strokeWidth=1;fontFamily=Verdana;fontSize=12;exitX=-0.001;exitY=0.401;exitDx=0;exitDy=0;entryX=1;entryY=0.5;entryDx=0;entryDy=0;exitPerimeter=0;" parent="1" source="ggczQ8R7zVc78r3qwQfg-3" target="62893188c0fa7362-11" edge="1">
          <mxGeometry x="-0.1294" y="17" relative="1" as="geometry">
            <mxPoint as="offset" />
            <mxPoint x="239.5" y="735" as="sourcePoint" />
          </mxGeometry>
        </mxCell>
        <mxCell id="ggczQ8R7zVc78r3qwQfg-11" value="&lt;span&gt;Does user_id exist in table&lt;br&gt;&lt;div style=&quot;&quot;&gt;&lt;span style=&quot;background-color: transparent; color: light-dark(rgb(0, 0, 0), rgb(255, 255, 255));&quot;&gt;&lt;i&gt;iamsmart.portal_online_service_client_user_role&lt;br&gt;?&lt;/i&gt;&lt;/span&gt;&lt;/div&gt;&lt;/span&gt;" style="whiteSpace=wrap;html=1;rounded=1;shadow=1;labelBackgroundColor=none;strokeWidth=1;fontFamily=Verdana;fontSize=12;align=left;" parent="1" vertex="1">
          <mxGeometry x="964.2874999999999" y="380" width="325" height="100" as="geometry" />
        </mxCell>
        <mxCell id="ggczQ8R7zVc78r3qwQfg-12" value="&lt;span&gt;Nothing&lt;/span&gt;" style="whiteSpace=wrap;html=1;rounded=0;shadow=1;labelBackgroundColor=none;strokeWidth=2;fontFamily=Verdana;fontSize=12;align=center;" parent="1" vertex="1">
          <mxGeometry x="897.5" y="530" width="120" height="60" as="geometry" />
        </mxCell>
        <mxCell id="ggczQ8R7zVc78r3qwQfg-13" value="Yes" style="rounded=0;html=1;labelBackgroundColor=none;startArrow=none;startFill=0;startSize=5;endArrow=none;endFill=0;endSize=5;jettySize=auto;orthogonalLoop=1;strokeWidth=1;fontFamily=Verdana;fontSize=12;entryX=0.5;entryY=0;entryDx=0;entryDy=0;" parent="1" source="ggczQ8R7zVc78r3qwQfg-11" target="3dLhYdu3cuJutTxXhPSu-57" edge="1">
          <mxGeometry x="-0.2614" y="-13" relative="1" as="geometry">
            <mxPoint as="offset" />
            <mxPoint x="1260" y="530" as="targetPoint" />
          </mxGeometry>
        </mxCell>
        <mxCell id="ggczQ8R7zVc78r3qwQfg-14" value="&lt;span style=&quot;color: rgb(0, 0, 0); font-family: Verdana; font-size: 12px; font-style: normal; font-variant-ligatures: normal; font-variant-caps: normal; letter-spacing: normal; orphans: 2; text-indent: 0px; text-transform: none; widows: 2; word-spacing: 0px; -webkit-text-stroke-width: 0px; white-space: nowrap; background-color: rgb(251, 251, 251); text-decoration-thickness: initial; text-decoration-style: initial; text-decoration-color: initial; float: none; display: inline !important;&quot;&gt;No&lt;br&gt;&lt;/span&gt;&lt;span style=&quot;color: rgb(0, 0, 0); font-family: Verdana; font-size: 12px; font-style: normal; font-variant-ligatures: normal; font-variant-caps: normal; letter-spacing: normal; orphans: 2; text-indent: 0px; text-transform: none; widows: 2; word-spacing: 0px; -webkit-text-stroke-width: 0px; white-space: nowrap; background-color: rgb(251, 251, 251); text-decoration-thickness: initial; text-decoration-style: initial; text-decoration-color: initial; float: none; display: inline !important;&quot;&gt;-&amp;nbsp;&lt;b&gt;ADOPTION USER&lt;/b&gt;&lt;/span&gt;&lt;div style=&quot;forced-color-adjust: none; color: rgb(0, 0, 0); font-family: Verdana; font-size: 12px; font-style: normal; font-variant-ligatures: normal; font-variant-caps: normal; letter-spacing: normal; orphans: 2; text-indent: 0px; text-transform: none; widows: 2; word-spacing: 0px; -webkit-text-stroke-width: 0px; white-space: nowrap; background-color: rgb(251, 251, 251); text-decoration-thickness: initial; text-decoration-style: initial; text-decoration-color: initial;&quot;&gt;&lt;b&gt;- SBX USER&lt;/b&gt;&lt;/div&gt;" style="rounded=0;html=1;labelBackgroundColor=none;startArrow=none;startFill=0;startSize=5;endArrow=none;endFill=0;endSize=5;jettySize=auto;orthogonalLoop=1;strokeWidth=1;fontFamily=Verdana;fontSize=12;align=left;" parent="1" source="ggczQ8R7zVc78r3qwQfg-11" target="ggczQ8R7zVc78r3qwQfg-12" edge="1">
          <mxGeometry x="1" y="-101" relative="1" as="geometry">
            <mxPoint x="-35" y="50" as="offset" />
          </mxGeometry>
        </mxCell>
        <mxCell id="ggczQ8R7zVc78r3qwQfg-20" value="Support Team" style="text;html=1;align=center;verticalAlign=middle;whiteSpace=wrap;rounded=0;fontSize=20;fontStyle=2" parent="1" vertex="1">
          <mxGeometry x="580" y="340" width="140" height="30" as="geometry" />
        </mxCell>
        <mxCell id="ggczQ8R7zVc78r3qwQfg-23" value="General User" style="text;html=1;align=center;verticalAlign=middle;whiteSpace=wrap;rounded=0;fontSize=20;fontStyle=2" parent="1" vertex="1">
          <mxGeometry x="1141.07" y="340" width="140" height="30" as="geometry" />
        </mxCell>
        <mxCell id="ggczQ8R7zVc78r3qwQfg-24" value="is the creator of the resource?&lt;div&gt;(create_by)&lt;/div&gt;" style="whiteSpace=wrap;html=1;rounded=1;shadow=1;labelBackgroundColor=none;strokeWidth=1;fontFamily=Verdana;fontSize=12;align=center;" parent="1" vertex="1">
          <mxGeometry x="1034.5012499999998" y="120" width="190" height="100" as="geometry" />
        </mxCell>
        <mxCell id="ggczQ8R7zVc78r3qwQfg-25" value="Yes" style="rounded=0;html=1;labelBackgroundColor=none;startArrow=none;startFill=0;startSize=5;endArrow=none;endFill=0;endSize=5;jettySize=auto;orthogonalLoop=1;strokeWidth=1;fontFamily=Verdana;fontSize=12;exitX=0.5;exitY=1;exitDx=0;exitDy=0;entryX=1;entryY=0.5;entryDx=0;entryDy=0;" parent="1" source="ggczQ8R7zVc78r3qwQfg-24" target="ggczQ8R7zVc78r3qwQfg-27" edge="1">
          <mxGeometry x="-0.359" y="-11" relative="1" as="geometry">
            <mxPoint as="offset" />
            <mxPoint x="442.5" y="220" as="targetPoint" />
          </mxGeometry>
        </mxCell>
        <mxCell id="ggczQ8R7zVc78r3qwQfg-26" value="No" style="rounded=0;html=1;labelBackgroundColor=none;startArrow=none;startFill=0;startSize=5;endArrow=none;endFill=0;endSize=5;jettySize=auto;orthogonalLoop=1;strokeWidth=1;fontFamily=Verdana;fontSize=12;exitX=0.5;exitY=1;exitDx=0;exitDy=0;entryX=0.5;entryY=0;entryDx=0;entryDy=0;" parent="1" source="ggczQ8R7zVc78r3qwQfg-24" target="62893188c0fa7362-1" edge="1">
          <mxGeometry x="0.1429" y="25" relative="1" as="geometry">
            <mxPoint as="offset" />
            <mxPoint x="602.5" y="370" as="sourcePoint" />
            <mxPoint x="692.5" y="430" as="targetPoint" />
          </mxGeometry>
        </mxCell>
        <mxCell id="ggczQ8R7zVc78r3qwQfg-27" value="&lt;span&gt;Allow access&lt;/span&gt;" style="whiteSpace=wrap;html=1;rounded=0;shadow=1;labelBackgroundColor=none;strokeWidth=2;fontFamily=Verdana;fontSize=12;align=center;" parent="1" vertex="1">
          <mxGeometry x="1269.3587499999999" y="270" width="120" height="60" as="geometry" />
        </mxCell>
        <mxCell id="ggczQ8R7zVc78r3qwQfg-30" style="edgeStyle=orthogonalEdgeStyle;rounded=0;orthogonalLoop=1;jettySize=auto;html=1;exitX=0.5;exitY=1;exitDx=0;exitDy=0;entryX=0.5;entryY=0;entryDx=0;entryDy=0;" parent="1" source="ggczQ8R7zVc78r3qwQfg-28" target="ggczQ8R7zVc78r3qwQfg-24" edge="1">
          <mxGeometry relative="1" as="geometry" />
        </mxCell>
        <mxCell id="ggczQ8R7zVc78r3qwQfg-28" value="&lt;span&gt;Start checking permission&lt;/span&gt;" style="whiteSpace=wrap;html=1;rounded=0;shadow=1;labelBackgroundColor=none;strokeWidth=2;fontFamily=Verdana;fontSize=12;align=center;" parent="1" vertex="1">
          <mxGeometry x="1069.5012499999998" y="10" width="120" height="60" as="geometry" />
        </mxCell>
        <mxCell id="3dLhYdu3cuJutTxXhPSu-22" value="" style="endArrow=none;dashed=1;html=1;dashPattern=1 3;strokeWidth=2;rounded=0;" parent="1" edge="1">
          <mxGeometry width="50" height="50" relative="1" as="geometry">
            <mxPoint x="1577" y="340" as="sourcePoint" />
            <mxPoint x="317" y="340" as="targetPoint" />
          </mxGeometry>
        </mxCell>
        <mxCell id="kXZpqeM-v0swAcNjDyid-4" value="No" style="edgeStyle=orthogonalEdgeStyle;rounded=0;orthogonalLoop=1;jettySize=auto;html=1;exitX=0;exitY=0.5;exitDx=0;exitDy=0;entryX=1;entryY=0.5;entryDx=0;entryDy=0;" edge="1" parent="1" source="3dLhYdu3cuJutTxXhPSu-57" target="ggczQ8R7zVc78r3qwQfg-12">
          <mxGeometry relative="1" as="geometry" />
        </mxCell>
        <mxCell id="3dLhYdu3cuJutTxXhPSu-57" value="Does user have any role in the requested &lt;b&gt;case_ref_id&lt;/b&gt; and &lt;b&gt;client_id&lt;/b&gt;?" style="whiteSpace=wrap;html=1;rounded=1;shadow=1;labelBackgroundColor=none;strokeWidth=1;fontFamily=Verdana;fontSize=12;align=left;" parent="1" vertex="1">
          <mxGeometry x="1224.4999999999998" y="521.25" width="329.98" height="77.5" as="geometry" />
        </mxCell>
        <mxCell id="3dLhYdu3cuJutTxXhPSu-70" value="" style="edgeStyle=elbowEdgeStyle;elbow=vertical;sourcePerimeterSpacing=0;targetPerimeterSpacing=0;startArrow=none;endArrow=none;rounded=0;curved=0;exitX=0.5;exitY=1;exitDx=0;exitDy=0;entryX=0.5;entryY=0;entryDx=0;entryDy=0;" parent="1" target="3dLhYdu3cuJutTxXhPSu-87" edge="1" source="3dLhYdu3cuJutTxXhPSu-57">
          <mxGeometry relative="1" as="geometry">
            <mxPoint x="1957.5" y="888.75" as="sourcePoint" />
            <mxPoint x="1960" y="1000" as="targetPoint" />
          </mxGeometry>
        </mxCell>
        <mxCell id="3dLhYdu3cuJutTxXhPSu-84" value="" style="endArrow=none;dashed=1;html=1;dashPattern=1 3;strokeWidth=2;rounded=0;" parent="1" edge="1">
          <mxGeometry width="50" height="50" relative="1" as="geometry">
            <mxPoint x="1607.5" y="1230" as="sourcePoint" />
            <mxPoint x="1607.5" y="690" as="targetPoint" />
          </mxGeometry>
        </mxCell>
        <mxCell id="3dLhYdu3cuJutTxXhPSu-85" value="" style="endArrow=none;dashed=1;html=1;dashPattern=1 3;strokeWidth=2;rounded=0;" parent="1" edge="1">
          <mxGeometry width="50" height="50" relative="1" as="geometry">
            <mxPoint x="2317" y="690" as="sourcePoint" />
            <mxPoint x="907.5" y="690" as="targetPoint" />
          </mxGeometry>
        </mxCell>
        <mxCell id="3dLhYdu3cuJutTxXhPSu-127" value="" style="group;fillColor=#00C3FF;" parent="1" vertex="1" connectable="0">
          <mxGeometry x="-50" y="950" width="340" height="465" as="geometry" />
        </mxCell>
        <mxCell id="ikDHi0NmjfAgZXKBg_fg-6" value="" style="edgeStyle=elbowEdgeStyle;rounded=0;orthogonalLoop=1;jettySize=auto;html=1;elbow=vertical;startArrow=none;endArrow=none;" parent="3dLhYdu3cuJutTxXhPSu-127" source="3dLhYdu3cuJutTxXhPSu-129" target="3dLhYdu3cuJutTxXhPSu-131" edge="1">
          <mxGeometry relative="1" as="geometry" />
        </mxCell>
        <mxCell id="3dLhYdu3cuJutTxXhPSu-129" value="&lt;div style=&quot;font-family: Verdana; text-align: left;&quot;&gt;&lt;b&gt;- PROD_ENV_APPROVER&lt;/b&gt;&lt;/div&gt;&lt;div style=&quot;font-family: Verdana; text-align: left;&quot;&gt;&lt;b&gt;- PROD_ENV_MGR&lt;/b&gt;&lt;/div&gt;&lt;div style=&quot;font-family: Verdana; text-align: left;&quot;&gt;&lt;b&gt;- PROD_ENV_SUPPORT&lt;/b&gt;&lt;/div&gt;" style="whiteSpace=wrap;html=1;align=center;verticalAlign=middle;treeFolding=1;treeMoving=1;newEdgeStyle={&quot;edgeStyle&quot;:&quot;elbowEdgeStyle&quot;,&quot;startArrow&quot;:&quot;none&quot;,&quot;endArrow&quot;:&quot;none&quot;};imageWidth=24;" parent="3dLhYdu3cuJutTxXhPSu-127" vertex="1">
          <mxGeometry x="63.953090963719745" y="133.65159574468086" width="210" height="60" as="geometry" />
        </mxCell>
        <mxCell id="3dLhYdu3cuJutTxXhPSu-131" value="&lt;div style=&quot;&quot;&gt;&lt;span style=&quot;background-color: transparent; color: light-dark(rgb(0, 0, 0), rgb(255, 255, 255));&quot;&gt;Allow&lt;/span&gt;&lt;/div&gt;&lt;div&gt;-&amp;nbsp;&lt;b&gt;PRODUCTION&lt;/b&gt; &lt;i&gt;Write&lt;/i&gt;&lt;/div&gt;" style="whiteSpace=wrap;html=1;rounded=0;shadow=1;labelBackgroundColor=none;strokeWidth=2;fontFamily=Verdana;fontSize=12;align=left;" parent="3dLhYdu3cuJutTxXhPSu-127" vertex="1">
          <mxGeometry x="88.71694509126414" y="294.0010638297872" width="160" height="40" as="geometry" />
        </mxCell>
        <mxCell id="3dLhYdu3cuJutTxXhPSu-135" value="PRODUCTION" style="text;html=1;align=center;verticalAlign=middle;whiteSpace=wrap;rounded=0;fontSize=20;fontStyle=2" parent="3dLhYdu3cuJutTxXhPSu-127" vertex="1">
          <mxGeometry x="132.9608653196124" width="71.50905130323743" height="29.680851063829788" as="geometry" />
        </mxCell>
        <mxCell id="3dLhYdu3cuJutTxXhPSu-137" value="" style="group;fillColor=light-dark(#f5e747, #ededed);" parent="1" vertex="1" connectable="0">
          <mxGeometry x="429.69" y="952.5" width="410.31" height="460" as="geometry" />
        </mxCell>
        <mxCell id="3dLhYdu3cuJutTxXhPSu-138" value="&lt;div style=&quot;&quot;&gt;&lt;div&gt;&lt;span style=&quot;background-color: transparent; color: light-dark(rgb(0, 0, 0), rgb(255, 255, 255));&quot;&gt;Allow&lt;/span&gt;&lt;/div&gt;&lt;div&gt;-&amp;nbsp;&lt;b&gt;TESTING&lt;/b&gt;&amp;nbsp;&lt;i&gt;Write&lt;/i&gt;&lt;/div&gt;&lt;/div&gt;" style="whiteSpace=wrap;html=1;rounded=0;shadow=1;labelBackgroundColor=none;strokeWidth=2;fontFamily=Verdana;fontSize=12;align=left;" parent="3dLhYdu3cuJutTxXhPSu-137" vertex="1">
          <mxGeometry x="232.79486353217604" y="293.0021276595745" width="130" height="40" as="geometry" />
        </mxCell>
        <mxCell id="3dLhYdu3cuJutTxXhPSu-143" value="TESTING" style="text;html=1;align=center;verticalAlign=middle;whiteSpace=wrap;rounded=0;fontSize=20;fontStyle=2" parent="3dLhYdu3cuJutTxXhPSu-137" vertex="1">
          <mxGeometry x="157.41751340794704" width="86.29670247126867" height="29.361702127659573" as="geometry" />
        </mxCell>
        <mxCell id="GeK2E0vcMYUvxhaoGY6n-1" value="&lt;div style=&quot;&quot;&gt;&lt;div&gt;&lt;span style=&quot;background-color: transparent; color: light-dark(rgb(0, 0, 0), rgb(255, 255, 255));&quot;&gt;Allow&lt;/span&gt;&lt;/div&gt;&lt;div&gt;-&amp;nbsp;&lt;b&gt;TESTING&lt;/b&gt;&amp;nbsp;&lt;i&gt;Read&lt;/i&gt;&lt;/div&gt;&lt;/div&gt;" style="whiteSpace=wrap;html=1;rounded=0;shadow=1;labelBackgroundColor=none;strokeWidth=2;fontFamily=Verdana;fontSize=12;align=left;" parent="3dLhYdu3cuJutTxXhPSu-137" vertex="1">
          <mxGeometry x="61.40132919731602" y="293.0021276595744" width="130" height="40" as="geometry" />
        </mxCell>
        <mxCell id="3dLhYdu3cuJutTxXhPSu-156" value="" style="endArrow=none;dashed=1;html=1;dashPattern=1 3;strokeWidth=2;rounded=0;" parent="1" edge="1">
          <mxGeometry width="50" height="50" relative="1" as="geometry">
            <mxPoint x="829.5" y="896" as="sourcePoint" />
            <mxPoint x="-50" y="896" as="targetPoint" />
          </mxGeometry>
        </mxCell>
        <mxCell id="3dLhYdu3cuJutTxXhPSu-163" value="Yes" style="edgeStyle=orthogonalEdgeStyle;rounded=0;orthogonalLoop=1;jettySize=auto;html=1;exitX=0;exitY=0.5;exitDx=0;exitDy=0;entryX=0.5;entryY=0;entryDx=0;entryDy=0;" parent="1" source="3dLhYdu3cuJutTxXhPSu-158" target="3dLhYdu3cuJutTxXhPSu-129" edge="1">
          <mxGeometry relative="1" as="geometry">
            <mxPoint x="-230" y="880" as="targetPoint" />
          </mxGeometry>
        </mxCell>
        <mxCell id="3dLhYdu3cuJutTxXhPSu-158" value="has at least one&lt;b&gt;&amp;nbsp;&lt;/b&gt;&lt;b&gt;PROD_ENV_XXXXX&lt;/b&gt;&lt;span style=&quot;background-color: transparent;&quot;&gt;&lt;b style=&quot;color: light-dark(rgb(0, 0, 0), rgb(255, 255, 255));&quot;&gt;?&lt;/b&gt;&lt;/span&gt;" style="whiteSpace=wrap;html=1;rounded=1;shadow=1;labelBackgroundColor=none;strokeWidth=1;fontFamily=Verdana;fontSize=12;align=left;" parent="1" vertex="1">
          <mxGeometry x="299.9999999999998" y="810" width="329.98" height="77.5" as="geometry" />
        </mxCell>
        <mxCell id="3dLhYdu3cuJutTxXhPSu-159" value="&lt;span style=&quot;forced-color-adjust: none; color: rgb(0, 0, 0); font-family: Verdana; font-size: 12px; font-style: normal; font-variant-ligatures: normal; font-variant-caps: normal; font-weight: 400; letter-spacing: normal; orphans: 2; text-align: left; text-indent: 0px; text-transform: none; widows: 2; word-spacing: 0px; -webkit-text-stroke-width: 0px; white-space: normal; text-decoration-thickness: initial; text-decoration-style: initial; text-decoration-color: initial; float: none; display: inline !important;&quot;&gt;has at least either&lt;br&gt;&lt;/span&gt;&lt;div style=&quot;text-align: left;&quot;&gt;&lt;font face=&quot;Verdana&quot;&gt;&lt;span style=&quot;font-size: 12px; text-wrap-mode: wrap;&quot;&gt;&lt;b&gt;ITE_ENV_APPROVER&lt;/b&gt;&lt;/span&gt;&lt;/font&gt;&lt;/div&gt;&lt;div style=&quot;text-align: left;&quot;&gt;&lt;font face=&quot;Verdana&quot;&gt;&lt;span style=&quot;font-size: 12px; text-wrap-mode: wrap;&quot;&gt;&lt;b&gt;TEST_ENV_MGR&lt;/b&gt;&lt;/span&gt;&lt;/font&gt;&lt;/div&gt;&lt;div style=&quot;text-align: left;&quot;&gt;&lt;font face=&quot;Verdana&quot;&gt;&lt;span style=&quot;font-size: 12px; text-wrap-mode: wrap;&quot;&gt;&lt;b&gt;TEST_ENV_SUPPORT&lt;/b&gt;&lt;/span&gt;&lt;/font&gt;&lt;/div&gt;" style="edgeStyle=orthogonalEdgeStyle;rounded=0;orthogonalLoop=1;jettySize=auto;html=1;labelBackgroundColor=light-dark(#e3e3e3, #ededed);exitX=1;exitY=0.5;exitDx=0;exitDy=0;entryX=0.5;entryY=0;entryDx=0;entryDy=0;" parent="1" source="3dLhYdu3cuJutTxXhPSu-158" target="3dLhYdu3cuJutTxXhPSu-138" edge="1">
          <mxGeometry x="0.7569" relative="1" as="geometry">
            <mxPoint x="-398" y="745" as="sourcePoint" />
            <mxPoint x="472.3912688349733" y="1057.8085106382978" as="targetPoint" />
            <mxPoint as="offset" />
          </mxGeometry>
        </mxCell>
        <mxCell id="3dLhYdu3cuJutTxXhPSu-167" value="No" style="edgeLabel;html=1;align=center;verticalAlign=middle;resizable=0;points=[];" parent="3dLhYdu3cuJutTxXhPSu-159" vertex="1" connectable="0">
          <mxGeometry x="0.1067" y="1" relative="1" as="geometry">
            <mxPoint as="offset" />
          </mxGeometry>
        </mxCell>
        <mxCell id="GeK2E0vcMYUvxhaoGY6n-2" value="" style="endArrow=classic;html=1;rounded=0;entryX=0;entryY=0.5;entryDx=0;entryDy=0;exitX=1;exitY=0.5;exitDx=0;exitDy=0;" parent="1" source="3dLhYdu3cuJutTxXhPSu-129" target="GeK2E0vcMYUvxhaoGY6n-1" edge="1">
          <mxGeometry width="50" height="50" relative="1" as="geometry">
            <mxPoint x="460" y="1136.5" as="sourcePoint" />
            <mxPoint x="510" y="1086.5" as="targetPoint" />
          </mxGeometry>
        </mxCell>
        <mxCell id="ikDHi0NmjfAgZXKBg_fg-7" value="" style="endArrow=none;dashed=1;html=1;dashPattern=1 3;strokeWidth=2;rounded=0;" parent="1" edge="1">
          <mxGeometry width="50" height="50" relative="1" as="geometry">
            <mxPoint x="360" y="1450" as="sourcePoint" />
            <mxPoint x="360" y="900" as="targetPoint" />
          </mxGeometry>
        </mxCell>
        <mxCell id="kXZpqeM-v0swAcNjDyid-8" value="Yes" style="edgeStyle=elbowEdgeStyle;elbow=vertical;sourcePerimeterSpacing=0;targetPerimeterSpacing=0;startArrow=none;endArrow=none;rounded=0;curved=0;exitX=0.5;exitY=1;exitDx=0;exitDy=0;entryX=0.5;entryY=0;entryDx=0;entryDy=0;" edge="1" parent="1" source="3dLhYdu3cuJutTxXhPSu-57" target="3dLhYdu3cuJutTxXhPSu-86">
          <mxGeometry x="-0.7553" relative="1" as="geometry">
            <mxPoint x="1399" y="609" as="sourcePoint" />
            <mxPoint x="1970" y="1010" as="targetPoint" />
            <mxPoint as="offset" />
          </mxGeometry>
        </mxCell>
      </root>
    </mxGraphModel>
  </diagram>
  <diagram id="AFy9GKx3AmtiWiIhWA-j" name="draft/back-up">
    <mxGraphModel dx="1562" dy="-208" grid="1" gridSize="10" guides="1" tooltips="1" connect="1" arrows="1" fold="1" page="1" pageScale="1" pageWidth="827" pageHeight="1169" math="0" shadow="0">
      <root>
        <mxCell id="0" />
        <mxCell id="1" parent="0" />
        <mxCell id="msR_3KOUAmeXlT0sgdpa-1" value="" style="group;fillColor=#CCCCCC;" vertex="1" connectable="0" parent="1">
          <mxGeometry x="550.0050000000001" y="1690" width="849.6799999999998" height="572.5" as="geometry" />
        </mxCell>
        <mxCell id="msR_3KOUAmeXlT0sgdpa-2" value="has at least one&lt;b&gt;&amp;nbsp;IP_CLIENTID_XXXXX_PROD&amp;nbsp;&lt;/b&gt;&lt;b style=&quot;background-color: transparent; color: light-dark(rgb(0, 0, 0), rgb(255, 255, 255));&quot;&gt;?&lt;/b&gt;" style="whiteSpace=wrap;html=1;rounded=1;shadow=1;labelBackgroundColor=none;strokeWidth=1;fontFamily=Verdana;fontSize=12;align=left;" vertex="1" parent="msR_3KOUAmeXlT0sgdpa-1">
          <mxGeometry x="129.6949999999997" y="50" width="329.98" height="77.5" as="geometry" />
        </mxCell>
        <mxCell id="msR_3KOUAmeXlT0sgdpa-3" value="&lt;span&gt;Nothing&lt;/span&gt;" style="whiteSpace=wrap;html=1;rounded=0;shadow=1;labelBackgroundColor=none;strokeWidth=2;fontFamily=Verdana;fontSize=12;align=center;" vertex="1" parent="msR_3KOUAmeXlT0sgdpa-1">
          <mxGeometry y="202.5" width="120" height="60" as="geometry" />
        </mxCell>
        <mxCell id="msR_3KOUAmeXlT0sgdpa-4" value="Yes" style="rounded=0;html=1;labelBackgroundColor=none;startArrow=none;startFill=0;startSize=5;endArrow=none;endFill=0;endSize=5;jettySize=auto;orthogonalLoop=1;strokeWidth=1;fontFamily=Verdana;fontSize=12;exitX=0.5;exitY=1;exitDx=0;exitDy=0;" edge="1" parent="msR_3KOUAmeXlT0sgdpa-1" source="msR_3KOUAmeXlT0sgdpa-2" target="msR_3KOUAmeXlT0sgdpa-7">
          <mxGeometry x="-0.2614" y="-13" relative="1" as="geometry">
            <mxPoint as="offset" />
            <mxPoint x="-315.3250000000003" y="407.5" as="targetPoint" />
          </mxGeometry>
        </mxCell>
        <mxCell id="msR_3KOUAmeXlT0sgdpa-5" value="No (has at least one&lt;br&gt;&lt;div style=&quot;text-align: center;&quot;&gt;&lt;b style=&quot;background-color: transparent; color: light-dark(rgb(0, 0, 0), rgb(255, 255, 255)); text-wrap-mode: wrap; text-align: left;&quot;&gt;IP_CLIENTID_XXXXX_TEST&lt;/b&gt;&lt;span style=&quot;background-color: transparent; color: light-dark(rgb(0, 0, 0), rgb(255, 255, 255));&quot;&gt;)&lt;/span&gt;&lt;/div&gt;" style="rounded=0;html=1;labelBackgroundColor=none;startArrow=none;startFill=0;startSize=5;endArrow=none;endFill=0;endSize=5;jettySize=auto;orthogonalLoop=1;strokeWidth=1;fontFamily=Verdana;fontSize=12;exitX=0.5;exitY=1;exitDx=0;exitDy=0;" edge="1" parent="msR_3KOUAmeXlT0sgdpa-1" source="msR_3KOUAmeXlT0sgdpa-2" target="msR_3KOUAmeXlT0sgdpa-3">
          <mxGeometry x="1" y="-66" relative="1" as="geometry">
            <mxPoint x="-32" y="33" as="offset" />
          </mxGeometry>
        </mxCell>
        <mxCell id="msR_3KOUAmeXlT0sgdpa-6" value="&lt;div style=&quot;&quot;&gt;&lt;span style=&quot;background-color: transparent; color: light-dark(rgb(0, 0, 0), rgb(255, 255, 255));&quot;&gt;Allow&lt;/span&gt;&lt;/div&gt;&lt;div&gt;-&amp;nbsp;&lt;b&gt;PRODUCTION&lt;/b&gt; &lt;i&gt;Write&lt;br&gt;&lt;/i&gt;-&amp;nbsp;&lt;b&gt;TESTING&lt;/b&gt; &lt;i&gt;Read&lt;/i&gt;&lt;/div&gt;&lt;div&gt;for specific &lt;b&gt;case_ref_id&lt;/b&gt;&lt;/div&gt;" style="whiteSpace=wrap;html=1;rounded=0;shadow=1;labelBackgroundColor=none;strokeWidth=2;fontFamily=Verdana;fontSize=12;align=left;" vertex="1" parent="msR_3KOUAmeXlT0sgdpa-1">
          <mxGeometry x="29.67999999999961" y="347.5" width="190" height="80" as="geometry" />
        </mxCell>
        <mxCell id="msR_3KOUAmeXlT0sgdpa-7" value="is&amp;nbsp;&lt;b&gt;IP_CLIENTID_ADMIN_PROD&amp;nbsp;&lt;/b&gt;&lt;b style=&quot;background-color: transparent; color: light-dark(rgb(0, 0, 0), rgb(255, 255, 255));&quot;&gt;?&lt;/b&gt;" style="whiteSpace=wrap;html=1;rounded=1;shadow=1;labelBackgroundColor=none;strokeWidth=1;fontFamily=Verdana;fontSize=12;align=left;" vertex="1" parent="msR_3KOUAmeXlT0sgdpa-1">
          <mxGeometry x="269.67999999999984" y="197.5" width="290" height="95" as="geometry" />
        </mxCell>
        <mxCell id="msR_3KOUAmeXlT0sgdpa-8" value="Yes" style="rounded=0;html=1;labelBackgroundColor=none;startArrow=none;startFill=0;startSize=5;endArrow=none;endFill=0;endSize=5;jettySize=auto;orthogonalLoop=1;strokeWidth=1;fontFamily=Verdana;fontSize=12;exitX=0.5;exitY=1;exitDx=0;exitDy=0;entryX=0.546;entryY=0.044;entryDx=0;entryDy=0;entryPerimeter=0;" edge="1" parent="msR_3KOUAmeXlT0sgdpa-1" source="msR_3KOUAmeXlT0sgdpa-7" target="msR_3KOUAmeXlT0sgdpa-6">
          <mxGeometry x="0.5313" y="-22" relative="1" as="geometry">
            <mxPoint as="offset" />
            <mxPoint x="-287.3250000000003" y="372.5" as="targetPoint" />
            <mxPoint x="-283.3250000000003" y="317.5" as="sourcePoint" />
          </mxGeometry>
        </mxCell>
        <mxCell id="msR_3KOUAmeXlT0sgdpa-9" value="No" style="rounded=0;html=1;labelBackgroundColor=none;startArrow=none;startFill=0;startSize=5;endArrow=none;endFill=0;endSize=5;jettySize=auto;orthogonalLoop=1;strokeWidth=1;fontFamily=Verdana;fontSize=12;exitX=0.5;exitY=1;exitDx=0;exitDy=0;entryX=0.5;entryY=0;entryDx=0;entryDy=0;" edge="1" parent="msR_3KOUAmeXlT0sgdpa-1" source="msR_3KOUAmeXlT0sgdpa-7" target="msR_3KOUAmeXlT0sgdpa-10">
          <mxGeometry x="0.3437" y="15" relative="1" as="geometry">
            <mxPoint as="offset" />
            <mxPoint x="-213.82500000000027" y="397.5" as="sourcePoint" />
          </mxGeometry>
        </mxCell>
        <mxCell id="msR_3KOUAmeXlT0sgdpa-10" value="is&amp;nbsp;&lt;b&gt;IP_CLIENTID_WORKER_PROD&amp;nbsp;&lt;/b&gt;&lt;b style=&quot;background-color: transparent; color: light-dark(rgb(0, 0, 0), rgb(255, 255, 255));&quot;&gt;?&lt;/b&gt;" style="whiteSpace=wrap;html=1;rounded=1;shadow=1;labelBackgroundColor=none;strokeWidth=1;fontFamily=Verdana;fontSize=12;align=left;" vertex="1" parent="msR_3KOUAmeXlT0sgdpa-1">
          <mxGeometry x="559.6799999999998" y="327.5" width="290" height="95" as="geometry" />
        </mxCell>
        <mxCell id="msR_3KOUAmeXlT0sgdpa-11" value="&lt;div style=&quot;&quot;&gt;&lt;span style=&quot;background-color: transparent; color: light-dark(rgb(0, 0, 0), rgb(255, 255, 255));&quot;&gt;Allow&lt;/span&gt;&lt;/div&gt;&lt;div&gt;-&amp;nbsp;&lt;b&gt;PRODUCTION&lt;/b&gt; &lt;i&gt;Write&lt;/i&gt;&lt;br&gt;&lt;/div&gt;&lt;div&gt;for specific &lt;b&gt;case_ref_id&lt;/b&gt;&lt;/div&gt;" style="whiteSpace=wrap;html=1;rounded=0;shadow=1;labelBackgroundColor=none;strokeWidth=2;fontFamily=Verdana;fontSize=12;align=left;" vertex="1" parent="msR_3KOUAmeXlT0sgdpa-1">
          <mxGeometry x="336.49999999999955" y="492.5" width="190" height="80" as="geometry" />
        </mxCell>
        <mxCell id="msR_3KOUAmeXlT0sgdpa-12" value="Yes" style="rounded=0;html=1;labelBackgroundColor=none;startArrow=none;startFill=0;startSize=5;endArrow=none;endFill=0;endSize=5;jettySize=auto;orthogonalLoop=1;strokeWidth=1;fontFamily=Verdana;fontSize=12;exitX=0.5;exitY=1;exitDx=0;exitDy=0;entryX=0.5;entryY=0;entryDx=0;entryDy=0;" edge="1" parent="msR_3KOUAmeXlT0sgdpa-1" source="msR_3KOUAmeXlT0sgdpa-10" target="msR_3KOUAmeXlT0sgdpa-11">
          <mxGeometry x="-0.2614" y="-13" relative="1" as="geometry">
            <mxPoint as="offset" />
            <mxPoint x="-181.32500000000027" y="536.5" as="targetPoint" />
            <mxPoint x="-140.32500000000027" y="467.5" as="sourcePoint" />
          </mxGeometry>
        </mxCell>
        <mxCell id="msR_3KOUAmeXlT0sgdpa-13" value="Draft / backup" style="text;html=1;align=center;verticalAlign=middle;whiteSpace=wrap;rounded=0;fontSize=20;fontStyle=2" vertex="1" parent="msR_3KOUAmeXlT0sgdpa-1">
          <mxGeometry x="219.67499999999995" width="140" height="30" as="geometry" />
        </mxCell>
      </root>
    </mxGraphModel>
  </diagram>
</mxfile>
